<svg xmlns="http://www.w3.org/2000/svg" viewBox="0 0 40 48" fill="none">
  <!-- Outer flame: deep forest green -->
  <path d="M20 4C23.5 9 31 17 31 26C31 34.3 26.2 43 20 43C13.8 43 9 34.3 9 26C9 17 16.5 9 20 4Z" fill="#01261f"/>
  <!-- Inner light: warm amber -->
  <path d="M20 14C22.2 18 26 22.5 26 27C26 31.3 23.3 35 20 35C16.7 35 14 31.3 14 27C14 22.5 17.8 18 20 14Z" fill="#e18a41"/>
  <!-- Soft gloss highlight -->
  <ellipse cx="17.5" cy="24" rx="1.8" ry="3" fill="white" opacity="0.2" transform="rotate(-10 17.5 24)"/>
  <!-- Glowing tip -->
  <circle cx="20" cy="5.5" r="1.5" fill="#ffb781" opacity="0.5"/>
</svg>
